<?xml version="1.0" standalone="no"?>
<!DOCTYPE svg PUBLIC "-//W3C//DTD SVG 20010904//EN"
 "http://www.w3.org/TR/2001/REC-SVG-20010904/DTD/svg10.dtd">
<svg version="1.0" xmlns="http://www.w3.org/2000/svg"
 width="512.000000pt" height="512.000000pt" viewBox="0 0 512.000000 512.000000"
 preserveAspectRatio="xMidYMid meet">
<metadata>
Created by potrace 1.16, written by Peter Selinger 2001-2019
</metadata>
<g transform="translate(0.000000,512.000000) scale(0.100000,-0.100000)"
fill="#1414142" stroke="none">
<path d="M2257 5105 c-475 -58 -931 -250 -1307 -551 -119 -95 -292 -270 -387
-390 -462 -585 -647 -1291 -530 -2029 24 -148 74 -336 123 -455 12 -30 25 -66
29 -80 14 -50 127 -284 170 -350 12 -19 41 -65 64 -101 23 -37 51 -75 61 -84
11 -10 20 -23 20 -28 0 -6 17 -31 39 -56 21 -25 49 -59 62 -75 62 -76 260
-272 312 -308 31 -23 57 -44 57 -49 0 -7 46 -39 220 -156 80 -53 213 -124 335
-177 238 -103 321 -111 377 -35 18 24 20 44 19 285 -1 142 -3 259 -5 261 -2 2
-27 -2 -57 -9 -31 -7 -121 -13 -209 -13 -135 0 -165 3 -230 24 -91 28 -130 48
-197 98 -74 56 -122 121 -192 263 -69 142 -141 237 -221 293 -79 54 -130 104
-130 127 0 62 144 68 265 10 88 -42 177 -126 252 -237 163 -244 378 -315 665
-222 l66 21 16 70 c20 87 64 180 111 235 20 24 33 43 28 43 -29 1 -202 31
-273 48 -250 60 -433 155 -574 299 -215 218 -317 534 -303 947 5 171 24 260
81 390 24 53 109 189 156 246 l20 25 -22 65 c-18 54 -21 90 -22 215 -1 153 5
192 47 329 l22 68 90 -5 c144 -8 295 -66 513 -198 l104 -62 91 21 c193 46 289
56 547 56 256 0 341 -9 550 -56 l95 -21 74 47 c203 131 389 205 536 213 l90 5
22 -68 c58 -180 68 -406 24 -544 l-21 -65 20 -25 c47 -57 132 -193 156 -246
57 -128 76 -219 81 -389 22 -637 -232 -1047 -748 -1210 -83 -26 -227 -59 -309
-70 -25 -3 -57 -8 -73 -11 l-27 -6 36 -41 c44 -52 88 -143 110 -228 14 -53 18
-139 23 -516 l6 -453 27 -26 c41 -41 115 -44 210 -10 179 66 366 157 484 237
176 117 224 151 224 158 0 4 24 24 53 44 44 30 248 232 322 317 53 62 95 118
95 127 0 5 9 18 20 28 10 9 38 47 61 84 23 36 52 82 64 101 45 70 153 294 170
350 4 14 18 48 31 77 13 28 24 58 24 65 0 7 11 47 24 88 71 217 105 454 106
735 3 1295 -973 2389 -2267 2540 -154 18 -446 18 -596 0z"/>
</g>
</svg>
