<?xml version="1.0" encoding="UTF-8"?>
<svg version="1.1" xmlns="http://www.w3.org/2000/svg" width="48" height="48">
<path d="M0 0 C1.7634375 -0.02900391 1.7634375 -0.02900391 3.5625 -0.05859375 C8.3970553 -0.03112469 11.96113692 0.07705551 16.2734375 2.3515625 C19.0514147 7.61840616 18.72136248 12.76616115 18.625 18.625 C18.64433594 19.800625 18.66367187 20.97625 18.68359375 22.1875 C18.65612469 27.0220553 18.54794449 30.58613692 16.2734375 34.8984375 C11.00659384 37.6764147 5.85883885 37.34636248 0 37.25 C-1.7634375 37.27900391 -1.7634375 37.27900391 -3.5625 37.30859375 C-8.3970553 37.28112469 -11.96113692 37.17294449 -16.2734375 34.8984375 C-19.0514147 29.63159384 -18.72136248 24.48383885 -18.625 18.625 C-18.64433594 17.449375 -18.66367187 16.27375 -18.68359375 15.0625 C-18.65612469 10.2279447 -18.54794449 6.66386308 -16.2734375 2.3515625 C-11.00659384 -0.4264147 -5.85883885 -0.09636248 0 0 Z " fill="#FEF9F4" transform="translate(24,5.375)"/>
<path d="M0 0 C3.125 0.375 3.125 0.375 5.5 2.0625 C7.39758004 4.76290237 7.48382213 6.14560081 7.125 9.375 C8.0840625 9.74625 8.0840625 9.74625 9.0625 10.125 C11.125 11.375 11.125 11.375 12.0625 13.25 C12.125 15.375 12.125 15.375 11.19140625 17.4765625 C7.89798699 20.50227471 4.43537045 19.95632774 0.125 19.875 C-0.69484375 19.89046875 -1.5146875 19.9059375 -2.359375 19.921875 C-8.28478521 19.88314683 -8.28478521 19.88314683 -10.92578125 17.609375 C-12.44299591 14.03798905 -12.06760517 11.2271034 -11.875 7.375 C-10.699375 7.25125 -10.699375 7.25125 -9.5 7.125 C-6.74859896 6.65889075 -6.74859896 6.65889075 -5.6875 4.4375 C-5.419375 3.756875 -5.15125 3.07625 -4.875 2.375 C-2.875 0.375 -2.875 0.375 0 0 Z " fill="#FFD34C" transform="translate(23.875,16.625)"/>
<path d="M0 0 C1.7634375 -0.02900391 1.7634375 -0.02900391 3.5625 -0.05859375 C12.00959358 -0.0105989 12.00959358 -0.0105989 16.29296875 2.73828125 C18.37805622 6.26432162 18.51797711 8.36905327 18.3125 12.4375 C18.26738281 13.59894531 18.22226562 14.76039062 18.17578125 15.95703125 C18.08876953 17.27767578 18.08876953 17.27767578 18 18.625 C14.19199737 16.17590153 14.19199737 16.17590153 13.3125 13.65234375 C13.10378577 12.25656732 12.89545381 10.86073368 12.6875 9.46484375 C12.14202807 7.52251863 12.14202807 7.52251863 10.46484375 6.40625 C6.85592384 5.26237681 3.31163223 5.21631485 -0.4375 5.1875 C-1.18837891 5.15462891 -1.93925781 5.12175781 -2.71289062 5.08789062 C-6.99149195 5.04649694 -8.49792346 5.20027039 -11.890625 8.0703125 C-12.58671875 8.91335938 -13.2828125 9.75640625 -14 10.625 C-16.3125 11.9375 -16.3125 11.9375 -18 12.625 C-18.39002137 8.64678201 -18.45926296 6.35120299 -16.29296875 2.92578125 C-11.94269965 -1.10698371 -5.53697672 -0.0910687 0 0 Z " fill="#6107E7" transform="translate(24,5.375)"/>
<path d="M0 0 C0.7115625 -0.01546875 1.423125 -0.0309375 2.15625 -0.046875 C5.47506808 -0.0221077 7.6653533 0.28742568 10.484375 2.078125 C12.57676547 5.42163555 12.39481305 7.84004766 12.25 11.75 C12.21390625 13.01328125 12.1778125 14.2765625 12.140625 15.578125 C12.07101563 17.02445313 12.07101563 17.02445313 12 18.5 C7.82519124 15.39410363 6.41896178 13.52094169 5 8.5 C3.12331681 6.22819646 3.12331681 6.22819646 0.125 6.0625 C-3.99863793 6.63980931 -4.55918821 8.27182957 -7 11.5 C-9.75 12.3125 -9.75 12.3125 -12 12.5 C-12.48560701 5.21589487 -12.48560701 5.21589487 -10.484375 2.265625 C-7.07566248 -0.15691911 -4.02767753 -0.08755821 0 0 Z " fill="#C4195F" transform="translate(24,11.5)"/>
<path d="M0 0 C1.96484375 1.1015625 1.96484375 1.1015625 4 3 C5.10744989 8.78928978 5.07625248 14.27147328 1.9375 19.3125 C-1.63042531 21.36215922 -3.94821095 21.39723422 -8 21 C-8 19.68 -8 18.36 -8 17 C-7.030625 16.54625 -6.06125 16.0925 -5.0625 15.625 C-1.92920418 14.34213779 -1.92920418 14.34213779 -1 12 C-0.77141886 9.9625237 -0.58975722 7.91959697 -0.4375 5.875 C-0.35371094 4.77929688 -0.26992188 3.68359375 -0.18359375 2.5546875 C-0.12300781 1.71164063 -0.06242187 0.86859375 0 0 Z " fill="#F60D4E" transform="translate(38,21)"/>
<path d="M0 0 C0.06058594 1.05058594 0.12117187 2.10117187 0.18359375 3.18359375 C0.73746322 14.12807018 0.73746322 14.12807018 2 25 C2.66 25.33 3.32 25.66 4 26 C1.50051071 25.6429301 -0.01818482 24.98756306 -2.11328125 23.5546875 C-4.97591656 19.67857261 -4.54602446 16.06605725 -4.4375 11.375 C-4.44458984 10.50359375 -4.45167969 9.6321875 -4.45898438 8.734375 C-4.41073643 3.93927158 -4.41073643 3.93927158 -4 2 C-1 0 -1 0 0 0 Z " fill="#FF6F0D" transform="translate(10,16)"/>
<path d="M0 0 C1.32278481 5.41139241 1.32278481 5.41139241 -0.0625 7.9375 C-2.91093248 9.49954362 -4.93504903 8.74921024 -8 8 C-9.32278481 2.58860759 -9.32278481 2.58860759 -7.9375 0.0625 C-5.08906752 -1.49954362 -3.06495097 -0.74921024 0 0 Z " fill="#FF8512" transform="translate(28,20)"/>
<path d="M0 0 C4.22880411 -0.14541967 8.45696413 -0.23411527 12.6875 -0.3125 C14.48477539 -0.3753418 14.48477539 -0.3753418 16.31835938 -0.43945312 C25.03767802 -0.5608921 25.03767802 -0.5608921 27.94775391 1.13525391 C29.33203125 2.51953125 29.33203125 2.51953125 31 5 C30.67 5.66 30.34 6.32 30 7 C29.23945312 6.34644531 28.47890625 5.69289063 27.6953125 5.01953125 C23.1097951 1.9674561 18.19259123 2.53027818 12.875 2.6875 C11.39193359 2.70200195 11.39193359 2.70200195 9.87890625 2.71679688 C5.7567496 2.7809441 1.98145336 2.85577845 -2 4 C-1.34 2.68 -0.68 1.36 0 0 Z " fill="#4A24F3" transform="translate(11,6)"/>
<path d="M0 0 C2.375 1.625 2.375 1.625 4 4 C4.61195145 7.6717087 4.48706506 9.28813568 2.375 12.375 C0 14 0 14 -3 14.5625 C-6 14 -6 14 -8.375 11.8125 C-10.14232156 8.75367423 -10.70698088 7.44653179 -10 4 C-7.16979976 -0.02759265 -4.82432618 -0.80405436 0 0 Z M-6.9375 3.0625 C-8.49954362 5.91093248 -7.74921024 7.93504903 -7 11 C-2.92299075 12.12437693 -2.92299075 12.12437693 0.9375 10.9375 C2.49954362 8.08906752 1.74921024 6.06495097 1 3 C-3.07700925 1.87562307 -3.07700925 1.87562307 -6.9375 3.0625 Z " fill="#FEECE9" transform="translate(27,17)"/>
<path d="M0 0 C0.99 0.33 1.98 0.66 3 1 C5.56634861 1.22718496 8.11678107 1.41608184 10.6875 1.5625 C11.7403418 1.62727539 11.7403418 1.62727539 12.81445312 1.69335938 C14.54275206 1.7991736 16.2713511 1.90006581 18 2 C18 3.32 18 4.64 18 6 C15.37493198 6.02690844 12.75013827 6.04679404 10.125 6.0625 C9.37863281 6.07087891 8.63226563 6.07925781 7.86328125 6.08789062 C2.2265625 6.11328125 2.2265625 6.11328125 0 5 C0 3.35 0 1.7 0 0 Z " fill="#FFE69C" transform="translate(12,36)"/>
<path d="M0 0 C0.75087891 -0.01160156 1.50175781 -0.02320313 2.27539062 -0.03515625 C6.83440241 -0.01109814 9.87084822 0.4202477 13.5625 3.375 C14.375 5.5625 14.375 5.5625 14.5625 7.375 C11.5625 6.375 11.5625 6.375 10.375 4.8359375 C7.45448095 2.48189844 4.1465858 2.94260361 0.5625 3 C-0.16195313 2.98839844 -0.88640625 2.97679687 -1.6328125 2.96484375 C-5.75930786 2.95554253 -5.75930786 2.95554253 -9.33203125 4.79296875 C-9.69683594 5.31503906 -10.06164062 5.83710938 -10.4375 6.375 C-11.4375 7.375 -12.4375 8.375 -13.4375 9.375 C-12.95488552 3.94558712 -12.95488552 3.94558712 -10.91796875 1.69921875 C-7.35320391 -0.20386043 -3.93888917 -0.06054655 0 0 Z " fill="#F4EFFB" transform="translate(23.4375,9.625)"/>
<path d="M0 0 C4.43247326 0.50656837 7.11233102 1.53479723 10 5 C10.42676144 8.70215548 10.28781259 12.29041555 10 16 C6.19199737 13.55090153 6.19199737 13.55090153 5.3125 11.02734375 C5.209375 10.33769531 5.10625 9.64804687 5 8.9375 C4.41776233 5.63758361 4.41776233 5.63758361 1.875 3.5 C1.25625 3.335 0.6375 3.17 0 3 C0 2.01 0 1.02 0 0 Z " fill="#561EEF" transform="translate(32,8)"/>
<path d="M0 0 C3.75283733 1.45271122 3.75283733 1.45271122 4.875 3.9375 C5 6 5 6 3 9 C0.5625 9.4375 0.5625 9.4375 -2 9 C-3.8125 7 -3.8125 7 -5 5 C-3.35 3.35 -1.7 1.7 0 0 Z " fill="#FF6317" transform="translate(31,26)"/>
<path d="M0 0 C1.07991211 0.01063477 1.07991211 0.01063477 2.18164062 0.02148438 C3.25575195 -0.00848633 3.25575195 -0.00848633 4.3515625 -0.0390625 C7.91312349 -0.0357617 9.87913714 0.18167283 12.74804688 2.36132812 C14.24414062 4.45898438 14.24414062 4.45898438 14.24414062 6.45898438 C11.27414063 5.96398437 11.27414063 5.96398437 8.24414062 5.45898438 C8.24414062 4.79898437 8.24414062 4.13898437 8.24414062 3.45898438 C2.63414063 3.45898438 -2.97585937 3.45898438 -8.75585938 3.45898438 C-5.47751045 0.18063545 -4.45056578 0.05372085 0 0 Z " fill="#9337AD" transform="translate(21.755859375,11.541015625)"/>
<path d="M0 0 C1.25664978 2.90600261 2 4.79604584 2 8 C0.02 8.66 -1.96 9.32 -4 10 C-5 9 -5 9 -5.09765625 7.15234375 C-5.06510417 5.1015625 -5.03255208 3.05078125 -5 1 C-3 0 -3 0 0 0 Z " fill="#FFAE0F" transform="translate(17,23)"/>
<path d="M0 0 C0.33 0 0.66 0 1 0 C1.09765625 6.15234375 1.09765625 6.15234375 1 8 C0 9 0 9 -3.5625 9.0625 C-4.696875 9.041875 -5.83125 9.02125 -7 9 C-7 7.68 -7 6.36 -7 5 C-6.030625 4.54625 -5.06125 4.0925 -4.0625 3.625 C-0.92920418 2.34213779 -0.92920418 2.34213779 0 0 Z " fill="#FF6215" transform="translate(37,33)"/>
<path d="M0 0 C0.10867302 1.58179615 0.18589827 3.16577153 0.25 4.75 C0.29640625 5.63171875 0.3428125 6.5134375 0.390625 7.421875 C-0.11369413 10.75038125 -1.47586629 11.87336766 -4 14 C-4.08082094 12.04233719 -4.13910778 10.08373272 -4.1875 8.125 C-4.22230469 7.03445312 -4.25710937 5.94390625 -4.29296875 4.8203125 C-4.19628906 3.88960937 -4.09960938 2.95890625 -4 2 C-1 0 -1 0 0 0 Z " fill="#F90E4C" transform="translate(10,16)"/>
<path d="M0 0 C3.125 0.0625 3.125 0.0625 6 1 C6.66 1.99 7.32 2.98 8 4 C4.04 4 0.08 4 -4 4 C-2.68 2.68 -1.36 1.36 0 0 Z " fill="#FFE28C" transform="translate(19,32)"/>
<path d="M0 0 C3.875 4.75 3.875 4.75 5 7 C2.6875 7.25 2.6875 7.25 0 7 C-1.8125 5 -1.8125 5 -3 3 C-2.01 2.01 -1.02 1.02 0 0 Z " fill="#FFA80C" transform="translate(29,28)"/>
<path d="M0 0 C-0.6875 2.4375 -0.6875 2.4375 -2 5 C-4.625 5.8125 -4.625 5.8125 -7 6 C-6.625 3.5625 -6.625 3.5625 -6 1 C-4 0 -4 0 0 0 Z " fill="#F81150" transform="translate(19,18)"/>
<path d="M0 0 C8.03501094 -0.78774617 8.03501094 -0.78774617 12.0625 2.5 C12.701875 3.325 13.34125 4.15 14 5 C13.67 5.66 13.34 6.32 13 7 C12.154375 6.38125 11.30875 5.7625 10.4375 5.125 C7.08627655 2.86952264 3.91143146 1.93874355 0 1 C0 0.67 0 0.34 0 0 Z " fill="#3048FC" transform="translate(28,6)"/>
<path d="M0 0 C2 1 2 1 4 3 C4.36933645 5.75372909 4.18336678 8.20365661 4 11 C1.29727467 8.12835434 0.05208163 6.69008159 -0.25 2.6875 C-0.1675 1.800625 -0.085 0.91375 0 0 Z " fill="#CD195E" transform="translate(38,21)"/>
<path d="M0 0 C3.875 1.875 3.875 1.875 5 3 C5.04080783 4.99958364 5.04254356 7.00045254 5 9 C2.5 7.3125 2.5 7.3125 0 5 C-0.3125 2.25 -0.3125 2.25 0 0 Z " fill="#FA0E4C" transform="translate(31,21)"/>
<path d="M0 0 C0.66 0.33 1.32 0.66 2 1 C0.38405168 3.04119788 -1.2856382 5.04072937 -3 7 C-3.66 7 -4.32 7 -5 7 C-5 5.35 -5 3.7 -5 2 C-2.625 0.9375 -2.625 0.9375 0 0 Z " fill="#7930B2" transform="translate(11,11)"/>
<path d="M0 0 C0.33 1.32 0.66 2.64 1 4 C-3.455 3.01 -3.455 3.01 -8 2 C-8 1.34 -8 0.68 -8 0 C-5.13822943 -1.43088528 -3.06624227 -0.59991697 0 0 Z " fill="#FC2456" transform="translate(28,20)"/>
<path d="M0 0 C2 1.125 2 1.125 4 3 C4.25 6.1875 4.25 6.1875 4 9 C2 7.875 2 7.875 0 6 C-0.25 2.8125 -0.25 2.8125 0 0 Z " fill="#7D2CAE" transform="translate(38,15)"/>
<path d="M0 0 C2.29013653 3.4352048 2.17842973 4.985331 2 9 C2.66 9.33 3.32 9.66 4 10 C1.13275314 9.42655063 0.1385485 9.1385485 -2 7 C-1.34 7 -0.68 7 0 7 C-0.185625 6.030625 -0.37125 5.06125 -0.5625 4.0625 C-0.706875 3.051875 -0.85125 2.04125 -1 1 C-0.67 0.67 -0.34 0.34 0 0 Z " fill="#FFBD16" transform="translate(10,32)"/>
<path d="M0 0 C0 1.32 0 2.64 0 4 C-1.65 4.66 -3.3 5.32 -5 6 C-5 4.35 -5 2.7 -5 1 C-3 0 -3 0 0 0 Z " fill="#FF6310" transform="translate(17,23)"/>
<path d="M0 0 C6.75 1.75 6.75 1.75 9 4 C8.67 4.99 8.34 5.98 8 7 C6.66382648 6.02471263 5.3311249 5.04466681 4 4.0625 C3.2575 3.51722656 2.515 2.97195312 1.75 2.41015625 C1.1725 1.94480469 0.595 1.47945312 0 1 C0 0.67 0 0.34 0 0 Z " fill="#DB2064" transform="translate(27,17)"/>
<path d="M0 0 C0 1.65 0 3.3 0 5 C-1.98 5.99 -1.98 5.99 -4 7 C-4.1875 4.625 -4.1875 4.625 -4 2 C-1 0 -1 0 0 0 Z " fill="#CC195F" transform="translate(10,16)"/>
<path d="M0 0 C5.625 -0.25 5.625 -0.25 9 2 C8.67 2.66 8.34 3.32 8 4 C5.36 3.34 2.72 2.68 0 2 C0 1.34 0 0.68 0 0 Z " fill="#FF5527" transform="translate(20,22)"/>
<path d="M0 0 C0.99 0.33 1.98 0.66 3 1 C0.525 4.465 0.525 4.465 -2 8 C-2.33 6.68 -2.66 5.36 -3 4 C-1.5625 1.75 -1.5625 1.75 0 0 Z " fill="#EEDFF0" transform="translate(13,11)"/>
<path d="M0 0 C1.98 0.99 1.98 0.99 4 2 C4 3.32 4 4.64 4 6 C2.68 5.67 1.36 5.34 0 5 C0 3.35 0 1.7 0 0 Z " fill="#FFDB6B" transform="translate(12,36)"/>
<path d="M0 0 C0 1.65 0 3.3 0 5 C-1.32 5 -2.64 5 -4 5 C-4 3.68 -4 2.36 -4 1 C-1 0 -1 0 0 0 Z " fill="#FFAD07" transform="translate(34,37)"/>
<path d="M0 0 C-2.76223278 2.76223278 -5.20706617 2.57856291 -9 3 C-8.67 2.01 -8.34 1.02 -8 0 C-4.71023192 -1.09658936 -3.28696233 -0.79953138 0 0 Z " fill="#DB1E63" transform="translate(21,17)"/>
</svg>
